name rise43.5482peak65.4966fall89.1036.mot
datacolumns 19
datarows 23
range 13.31327400000000 13.34994400000000
endheader
time	ground_force1_vx	ground_force1_vy	ground_force1_vz	ground_force1_px	ground_force1_py	ground_force1_pz	ground_force2_vx	ground_force2_vy	ground_force2_vz	ground_force2_px	ground_force2_py	ground_force2_pz	ground_torque1_x	ground_torque1_y	ground_torque1_z	ground_torque2_x	ground_torque2_y	ground_torque2_z	
13.31327400000000	-9.81921700000000	46.22169000000000	-11.49308300000000	0.28905500000000	0.00000000000000	0.09180100000000	-55.95557700000000	823.85892200000001	-49.97436900000000	0.08170100000000	0.00000000000000	-0.08637500000000	0.00000000000000	-5.94917700000000	0.00000000000000	0.00000000000000	-15.51680600000000	0.00000000000000	
13.31494700000000	-10.62851800000000	52.66824700000000	-12.67186700000000	0.29404000000000	0.00000000000000	0.09214800000000	-57.00458200000000	821.75808800000004	-49.77061900000000	0.08067200000000	0.00000000000000	-0.08629600000000	0.00000000000000	-6.64938300000000	0.00000000000000	0.00000000000000	-15.55217600000000	0.00000000000000	
13.31661200000000	-11.27205400000000	59.00482800000000	-13.71291900000000	0.29861400000000	0.00000000000000	0.09249100000000	-58.06584600000000	819.50714300000004	-49.55288000000000	0.07964800000000	0.00000000000000	-0.08621600000000	0.00000000000000	-7.29050700000000	0.00000000000000	0.00000000000000	-15.59068400000000	0.00000000000000	
13.31827700000000	-11.73518800000000	65.16464700000000	-14.59823700000000	0.30283000000000	0.00000000000000	0.09282800000000	-59.13842600000000	817.10259900000005	-49.32070100000000	0.07863000000000	0.00000000000000	-0.08613400000000	0.00000000000000	-7.86083000000000	0.00000000000000	0.00000000000000	-15.63223900000000	0.00000000000000	
13.31997900000000	-12.01233600000000	71.10725800000000	-15.31890400000000	0.30673200000000	0.00000000000000	0.09316100000000	-60.22128000000000	814.54100700000004	-49.07362900000000	0.07761700000000	0.00000000000000	-0.08605100000000	0.00000000000000	-8.35338700000000	0.00000000000000	0.00000000000000	-15.67673200000000	0.00000000000000	
13.32162900000000	-12.10618600000000	76.81784100000000	-15.87445600000000	0.31035700000000	0.00000000000000	0.09348900000000	-61.31326800000000	811.81896600000005	-48.81121600000000	0.07661100000000	0.00000000000000	-0.08596600000000	0.00000000000000	-8.76579000000000	0.00000000000000	0.00000000000000	-15.72403400000000	0.00000000000000	
13.32327900000000	-12.02636700000000	82.30450800000000	-16.27167600000000	0.31373600000000	0.00000000000000	0.09381300000000	-62.41315500000000	808.93313400000000	-48.53302000000000	0.07561200000000	0.00000000000000	-0.08587900000000	0.00000000000000	-9.09970700000000	0.00000000000000	0.00000000000000	-15.77399600000000	0.00000000000000	
13.32496400000000	-11.78777800000000	87.59418900000000	-16.52299300000000	0.31689500000000	0.00000000000000	0.09413300000000	-63.51960500000000	805.88023999999996	-48.23860600000000	0.07462000000000	0.00000000000000	-0.08579000000000	0.00000000000000	-9.36008700000000	0.00000000000000	0.00000000000000	-15.82645200000000	0.00000000000000	
13.32661300000000	-11.40878300000000	92.72768700000000	-16.64470500000000	0.31985700000000	0.00000000000000	0.09444900000000	-64.63118799999999	802.65709800000002	-47.92754900000000	0.07363600000000	0.00000000000000	-0.08570000000000	0.00000000000000	-9.55425300000000	0.00000000000000	0.00000000000000	-15.88121400000000	0.00000000000000	
13.32827900000000	-10.90942300000000	97.75446100000001	-16.65519000000000	0.32264100000000	0.00000000000000	0.09476200000000	-65.74637700000000	799.26061500000003	-47.59943900000000	0.07266000000000	0.00000000000000	-0.08560800000000	0.00000000000000	-9.69096000000000	0.00000000000000	0.00000000000000	-15.93807800000000	0.00000000000000	
13.32998300000000	-10.30981200000000	102.72760400000000	-16.57325800000000	0.32526200000000	0.00000000000000	0.09507000000000	-66.86355100000000	795.68780500000003	-47.25388200000000	0.07169200000000	0.00000000000000	-0.08551300000000	0.00000000000000	-9.77949200000000	0.00000000000000	0.00000000000000	-15.99682000000000	0.00000000000000	
13.33161400000000	-9.62879800000000	107.69938700000000	-16.41675500000000	0.32773400000000	0.00000000000000	0.09537400000000	-67.98099700000000	791.93580099999997	-46.89050000000000	0.07073400000000	0.00000000000000	-0.08541700000000	0.00000000000000	-9.82887900000000	0.00000000000000	0.00000000000000	-16.05719800000000	0.00000000000000	
13.33328200000000	-8.88294700000000	112.71761600000001	-16.20148200000000	0.33007000000000	0.00000000000000	0.09567500000000	-69.09691100000001	788.00186599999995	-46.50894000000000	0.06978500000000	0.00000000000000	-0.08531900000000	0.00000000000000	-9.84726700000000	0.00000000000000	0.00000000000000	-16.11895200000000	0.00000000000000	
13.33496700000000	-8.08588400000000	117.82295400000000	-15.94045100000000	0.33227900000000	0.00000000000000	0.09597200000000	-70.20940400000001	783.88340600000004	-46.10887100000000	0.06884600000000	0.00000000000000	-0.08521900000000	0.00000000000000	-9.84146500000000	0.00000000000000	0.00000000000000	-16.18180500000000	0.00000000000000	
13.33661500000000	-7.24796900000000	123.04722400000000	-15.64349000000000	0.33437000000000	0.00000000000000	0.09626500000000	-71.31650100000000	779.57798400000001	-45.68999300000000	0.06791600000000	0.00000000000000	-0.08511800000000	0.00000000000000	-9.81667700000000	0.00000000000000	0.00000000000000	-16.24546200000000	0.00000000000000	
13.33828100000000	-6.37627500000000	128.41266300000001	-15.31715600000000	0.33635000000000	0.00000000000000	0.09655400000000	-72.41614700000000	775.08332800000005	-45.25203200000000	0.06699700000000	0.00000000000000	-0.08501400000000	0.00000000000000	-9.77640800000000	0.00000000000000	0.00000000000000	-16.30961300000000	0.00000000000000	
13.33997900000000	-5.47481600000000	133.93200100000001	-14.96490600000000	0.33822600000000	0.00000000000000	0.09684000000000	-73.50620900000000	770.39734599999997	-44.79474900000000	0.06608700000000	0.00000000000000	-0.08490800000000	0.00000000000000	-9.72251400000000	0.00000000000000	0.00000000000000	-16.37393100000000	0.00000000000000	
13.34161000000000	-4.54496300000000	139.60921300000001	-14.58746900000000	0.34000400000000	0.00000000000000	0.09712200000000	-74.58448600000000	765.51813800000002	-44.31794100000000	0.06518800000000	0.00000000000000	-0.08480000000000	0.00000000000000	-9.65537100000000	0.00000000000000	0.00000000000000	-16.43807600000000	0.00000000000000	
13.34329000000000	-3.58598000000000	145.44076100000001	-14.18335800000000	0.34168600000000	0.00000000000000	0.09740000000000	-75.64870500000001	760.44401000000005	-43.82144200000000	0.06430000000000	0.00000000000000	-0.08469100000000	0.00000000000000	-9.57412900000000	0.00000000000000	0.00000000000000	-16.50169200000000	0.00000000000000	
13.34494800000000	-2.59561900000000	151.41714999999999	-13.74945100000000	0.34327900000000	0.00000000000000	0.09767400000000	-76.69653599999999	755.17348300000003	-43.30512800000000	0.06342100000000	0.00000000000000	-0.08457900000000	0.00000000000000	-9.47701400000000	0.00000000000000	0.00000000000000	-16.56441300000000	0.00000000000000	
13.34661300000000	-1.57071700000000	157.52460600000001	-13.28158900000000	0.34478300000000	0.00000000000000	0.09794500000000	-77.72558800000000	749.70531100000005	-42.76891600000000	0.06255300000000	0.00000000000000	-0.08446500000000	0.00000000000000	-9.36164700000000	0.00000000000000	0.00000000000000	-16.62585700000000	0.00000000000000	
13.34827500000000	-0.50776000000000	163.74675999999999	-12.77514700000000	0.34620300000000	0.00000000000000	0.09821100000000	-78.73342300000000	744.03848900000003	-42.21276900000000	0.06169500000000	0.00000000000000	-0.08435000000000	0.00000000000000	-9.22535600000000	0.00000000000000	0.00000000000000	-16.68563300000000	0.00000000000000	
13.34994400000000	0.59664400000000	170.06617900000001	-12.22552900000000	0.34754100000000	0.00000000000000	0.09847300000000	-79.71756000000001	738.17227000000003	-41.63669700000000	0.06084800000000	0.00000000000000	-0.08423200000000	0.00000000000000	-9.06545400000000	0.00000000000000	0.00000000000000	-16.74334200000000	0.00000000000000	
